# xmcd CD database file
#
# Track frame offsets:
#	150
#	21646
#	49998
#	68597
#	101564
#	103890
#	136495
#	160815
#	163142
#	190155
#	193334
#
# Disc length: 2927 seconds
#
# Revision: 0
# Processed by: cddbd v1.4PL0 Copyright (c) Steve Scherf et al.
# Submitted via: CDex 1.51
#
DISCID=a30b6d0b
DTITLE=Corciolli - Art Of Seduction
DYEAR=2001
DGENRE=New Age
TTITLE0=Corciolli - Art Of Seduction - 01 - Book Of Memories
TTITLE1=Corciolli - Art Of Seduction - 02 - Hypnotize Me
TTITLE2=Corciolli - Art Of Seduction - 03 - Safari
TTITLE3=Corciolli - Art Of Seduction - 04 - Steam
TTITLE4=Corciolli - Art Of Seduction - 05 - Little Love Games I
TTITLE5=Corciolli - Art Of Seduction - 06 - Metamorphosis
TTITLE6=Corciolli - Art Of Seduction - 07 - Lover In Dream
TTITLE7=Corciolli - Art Of Seduction - 08 - Little Love Games Ii
TTITLE8=Corciolli - Art Of Seduction - 09 - Flame
TTITLE9=Corciolli - Art Of Seduction - 10 - Little Love Games Iii
TTITLE10=Corciolli - Art Of Seduction - 11 - Misterios
EXTD=YEAR: 2001
EXTT0=
EXTT1=
EXTT2=
EXTT3=
EXTT4=
EXTT5=
EXTT6=
EXTT7=
EXTT8=
EXTT9=
EXTT10=
PLAYORDER=
